<?xml version="1.0" encoding="UTF-8" standalone="no"?>
<!-- Created with Inkscape (http://www.inkscape.org/) -->

<svg
   width="109.53751mm"
   height="34.344429mm"
   viewBox="0 0 109.5375 34.344429"
   version="1.1"
   id="svg1"
   xml:space="preserve"
   inkscape:version="1.4.2 (f4327f4, 2025-05-13)"
   sodipodi:docname="IngredientIntelBarcode.svg"
   xmlns:inkscape="http://www.inkscape.org/namespaces/inkscape"
   xmlns:sodipodi="http://sodipodi.sourceforge.net/DTD/sodipodi-0.dtd"
   xmlns="http://www.w3.org/2000/svg"
   xmlns:svg="http://www.w3.org/2000/svg"><sodipodi:namedview
     id="namedview1"
     pagecolor="#ffffff"
     bordercolor="#000000"
     borderopacity="0.25"
     inkscape:showpageshadow="2"
     inkscape:pageopacity="0.0"
     inkscape:pagecheckerboard="0"
     inkscape:deskcolor="#d1d1d1"
     inkscape:document-units="mm"
     inkscape:zoom="2.0334082"
     inkscape:cx="198.18943"
     inkscape:cy="91.717936"
     inkscape:window-width="1920"
     inkscape:window-height="1009"
     inkscape:window-x="-8"
     inkscape:window-y="-8"
     inkscape:window-maximized="1"
     inkscape:current-layer="layer1" /><defs
     id="defs1"><clipPath
       clipPathUnits="userSpaceOnUse"
       id="clipPath2"><g
         inkscape:label="Clip"
         id="use2" /></clipPath></defs><g
     inkscape:label="Layer 1"
     inkscape:groupmode="layer"
     id="layer1"
     transform="translate(-56.621416,-80.579376)"><path
       style="fill:#000000;fill-opacity:1;stroke:none;stroke-opacity:1"
       d="M 56.621417,90.633543 V 80.579376 H 56.886 57.150583 V 90.633543 100.68771 H 56.886 56.621417 Z m 2.116666,0 V 80.579376 h 0.264584 0.264583 v 10.054167 10.054167 h -0.264583 -0.264584 z m 1.058334,0 V 80.579376 h 0.79375 0.79375 v 10.054167 10.054167 h -0.79375 -0.79375 z m 2.116666,0 V 80.579376 h 0.79375 0.79375 v 10.054167 10.054167 h -0.79375 -0.79375 z m 2.116667,0 V 80.579376 h 0.264583 0.264584 V 90.633543 100.68771 H 64.294333 64.02975 Z m 1.058333,0 V 80.579376 h 0.79375 0.79375 v 10.054167 10.054167 h -0.79375 -0.79375 z m 2.116667,0 V 80.579376 h 0.264583 0.264584 V 90.633543 100.68771 H 67.469333 67.20475 Z m 1.058333,0 V 80.579376 h 0.264584 0.264583 v 10.054167 10.054167 h -0.264583 -0.264584 z m 2.116667,0 V 80.579376 h 0.79375 0.79375 V 90.633543 100.68771 H 71.1735 70.37975 Z m 2.116666,0 V 80.579376 H 72.761 73.025583 V 90.633543 100.68771 H 72.761 72.496416 Z m 1.058334,0 V 80.579376 h 0.264583 0.264583 V 90.633543 100.68771 H 73.819333 73.55475 Z m 2.116666,0 V 80.579376 H 75.936 76.200583 V 90.633543 100.68771 H 75.936 75.671416 Z m 1.058334,0 V 80.579376 h 0.264583 0.264583 V 90.633543 100.68771 H 76.994333 76.72975 Z m 2.116666,0 V 80.579376 H 79.111 79.375583 V 90.633543 100.68771 H 79.111 78.846416 Z m 2.116667,0 V 80.579376 h 0.264583 0.264584 v 10.054167 10.054167 h -0.264584 -0.264583 z m 1.058333,0 V 80.579376 h 0.79375 0.79375 v 10.054167 10.054167 h -0.79375 -0.79375 z m 2.116667,0 V 80.579376 h 0.264583 0.264584 v 10.054167 10.054167 h -0.264584 -0.264583 z m 1.058333,0 V 80.579376 h 0.79375 0.79375 v 10.054167 10.054167 h -0.79375 -0.79375 z m 2.116667,0 V 80.579376 h 0.264583 0.264584 v 10.054167 10.054167 h -0.264584 -0.264583 z m 2.116667,0 V 80.579376 h 0.264583 0.264583 V 90.633543 100.68771 H 89.694333 89.42975 Z m 1.058333,0 V 80.579376 h 0.264583 0.264584 v 10.054167 10.054167 h -0.264584 -0.264583 z m 2.116667,0 V 80.579376 h 0.264583 0.264583 V 90.633543 100.68771 H 92.869333 92.60475 Z m 1.058333,0 V 80.579376 h 0.264583 0.264583 v 10.054167 10.054167 h -0.264583 -0.264583 z m 2.116666,0 V 80.579376 h 0.264584 0.264583 v 10.054167 10.054167 h -0.264583 -0.264584 z m 2.116667,0 V 80.579376 h 0.264583 0.264584 v 10.054167 10.054167 h -0.264584 -0.264583 z m 1.058333,0 V 80.579376 h 0.79375 0.793751 v 10.054167 10.054167 h -0.793751 -0.79375 z m 3.175001,0 V 80.579376 h 0.79375 0.79375 v 10.054167 10.054167 h -0.79375 -0.79375 z m 2.11667,0 V 80.579376 h 0.26458 0.26458 v 10.054167 10.054167 h -0.26458 -0.26458 z m 1.05833,0 V 80.579376 h 0.26458 0.26459 v 10.054167 10.054167 h -0.26459 -0.26458 z m 1.05833,0 V 80.579376 h 0.26459 0.26458 v 10.054167 10.054167 h -0.26458 -0.26459 z m 1.05834,0 V 80.579376 h 0.26458 0.26458 v 10.054167 10.054167 h -0.26458 -0.26458 z m 2.11666,0 V 80.579376 h 0.26459 0.26458 v 10.054167 10.054167 h -0.26458 -0.26459 z m 1.05834,0 V 80.579376 h 0.26458 0.26458 v 10.054167 10.054167 h -0.26458 -0.26458 z m 2.11666,0 V 80.579376 h 0.26459 0.26458 v 10.054167 10.054167 h -0.26458 -0.26459 z m 2.11667,0 V 80.579376 h 0.26458 0.26459 v 10.054167 10.054167 h -0.26459 -0.26458 z m 1.05833,0 V 80.579376 h 0.26459 0.26458 v 10.054167 10.054167 h -0.26458 -0.26459 z m 1.05834,0 V 80.579376 h 0.26458 0.26458 v 10.054167 10.054167 h -0.26458 -0.26458 z m 1.05833,0 V 80.579376 h 0.79375 0.79375 v 10.054167 10.054167 h -0.79375 -0.79375 z m 3.175,0 V 80.579376 h 0.26458 0.26459 v 10.054167 10.054167 h -0.26459 -0.26458 z m 1.05833,0 V 80.579376 h 0.79375 0.79375 v 10.054167 10.054167 h -0.79375 -0.79375 z m 2.11667,0 V 80.579376 h 0.26458 0.26459 v 10.054167 10.054167 h -0.26459 -0.26458 z m 2.11667,0 V 80.579376 h 0.26458 0.26458 v 10.054167 10.054167 h -0.26458 -0.26458 z m 1.05833,0 V 80.579376 h 0.26458 0.26459 v 10.054167 10.054167 h -0.26459 -0.26458 z m 2.11667,0 V 80.579376 h 0.26458 0.26458 v 10.054167 10.054167 h -0.26458 -0.26458 z m 2.11666,0 V 80.579376 h 0.26459 0.26458 v 10.054167 10.054167 h -0.26458 -0.26459 z m 1.05834,0 V 80.579376 h 0.79375 0.79375 v 10.054167 10.054167 h -0.79375 -0.79375 z m 3.175,0 V 80.579376 h 0.26458 0.26458 v 10.054167 10.054167 h -0.26458 -0.26458 z m 1.05833,0 V 80.579376 h 0.79375 0.79375 v 10.054167 10.054167 h -0.79375 -0.79375 z m 2.11667,0 V 80.579376 h 0.26458 0.26458 v 10.054167 10.054167 h -0.26458 -0.26458 z m 1.05833,0 V 80.579376 h 0.26458 0.26459 v 10.054167 10.054167 h -0.26459 -0.26458 z m 1.05833,0 V 80.579376 h 0.26459 0.26458 v 10.054167 10.054167 h -0.26458 -0.26459 z m 2.11667,0 V 80.579376 h 0.26458 0.26459 v 10.054167 10.054167 h -0.26459 -0.26458 z m 2.11667,0 V 80.579376 h 0.26458 0.26458 v 10.054167 10.054167 h -0.26458 -0.26458 z m 1.05833,0 V 80.579376 h 0.26458 0.26459 v 10.054167 10.054167 h -0.26459 -0.26458 z m 2.11667,0 V 80.579376 h 0.26458 0.26458 v 10.054167 10.054167 h -0.26458 -0.26458 z m 1.05833,0 V 80.579376 h 0.79375 0.79375 v 10.054167 10.054167 h -0.79375 -0.79375 z m 2.11667,0 V 80.579376 h 0.26458 0.26458 v 10.054167 10.054167 h -0.26458 -0.26458 z m 1.05833,0 V 80.579376 h 0.26458 0.26459 v 10.054167 10.054167 h -0.26459 -0.26458 z m 2.11667,0 V 80.579376 h 0.26458 0.26458 v 10.054167 10.054167 h -0.26458 -0.26458 z m 1.05833,0 V 80.579376 h 0.79375 0.79375 v 10.054167 10.054167 h -0.79375 -0.79375 z m 2.11667,0 V 80.579376 h 0.26458 0.26458 v 10.054167 10.054167 h -0.26458 -0.26458 z m 2.11666,0 V 80.579376 h 0.26459 0.26458 v 10.054167 10.054167 h -0.26458 -0.26459 z m 1.05834,0 V 80.579376 h 0.79375 0.79375 v 10.054167 10.054167 h -0.79375 -0.79375 z m 2.11666,0 V 80.579376 h 0.79375 0.79375 v 10.054167 10.054167 h -0.79375 -0.79375 z m 2.11667,0 V 80.579376 h 0.26458 0.26459 v 10.054167 10.054167 h -0.26459 -0.26458 z"
       id="path1"
       sodipodi:nodetypes="ccccccccccccccccccccccccccccccccccccccccccccccccccccccccccccccccccccccccccccccccccccccccccccccccccccccccccccccccccccccccccccccccccccccccccccccccccccccccccccccccccccccccccccccccccccccccccccccccccccccccccccccccccccccccccccccccccccccccccccccccccccccccccccccccccccccccccccccccccccccccccccccccccccccccccccccccccccccccccccccccccccccccccccccccccccccccccccccccccccccccccccccccccccccccccccccccccccccccccccccccccccccccccccccccccccccccccccccccccccccccccccccccccccccccccccccccccccccccccccccccccccccccccccccccccccccccccccccccccccccccccccccccccccccccccccccccccccccccccccccccccccccccccccccccccccccccc"
       transform="translate(-1.0625e-6)" /><text
       xml:space="preserve"
       style="font-style:normal;font-variant:normal;font-weight:bold;font-stretch:normal;font-size:16.2278px;line-height:2px;font-family:'Times New Roman';-inkscape-font-specification:'Times New Roman, Bold';font-variant-ligatures:normal;font-variant-caps:normal;font-variant-numeric:normal;font-variant-east-asian:normal;text-align:start;writing-mode:lr-tb;direction:ltr;text-anchor:start;fill:#000000;fill-opacity:1;stroke:none;stroke-width:0.665001;stroke-opacity:1"
       x="56.436317"
       y="111.42152"
       id="text3"><tspan
         sodipodi:role="line"
         id="tspan3"
         style="font-style:normal;font-variant:normal;font-weight:bold;font-stretch:normal;font-size:16.2278px;line-height:2px;font-family:'Times New Roman';-inkscape-font-specification:'Times New Roman, Bold';font-variant-ligatures:normal;font-variant-caps:normal;font-variant-numeric:normal;font-variant-east-asian:normal;stroke-width:0.665"
         x="56.436317"
         y="111.42152">Ingredient Intel</tspan></text></g></svg>
